<svg width="99" height="99" viewBox="0 0 99 99" fill="none" xmlns="http://www.w3.org/2000/svg">
<path d="M10.2059 53.7023C8.65277 42.8861 7.87622 37.4781 10.0884 32.8543C12.3006 28.2304 17.0092 25.4198 26.4263 19.7984L32.0947 16.4149C40.6464 11.3102 44.9223 8.75781 49.6471 8.75781C54.3718 8.75781 58.6479 11.3102 67.1992 16.4149L72.8678 19.7984C82.2849 25.4198 86.9937 28.2304 89.2056 32.8543C91.4179 37.4781 90.6415 42.8861 89.0881 53.7023L87.9474 61.6483C85.952 75.5423 84.9544 82.4891 80.145 86.6391C75.3352 90.7891 68.2815 90.7891 54.1745 90.7891H45.1196C31.0125 90.7891 23.9589 90.7891 19.1492 86.6391C14.3395 82.4891 13.342 75.5423 11.3469 61.6483L10.2059 53.7023Z" stroke="#FFAD08" stroke-width="3"/>
<path d="M35.8942 66.1266C39.3749 68.7118 43.6081 70.2282 48.1736 70.2282C52.7391 70.2282 56.9722 68.7118 60.453 66.1266" stroke="#FFAD08" stroke-width="4" stroke-linecap="round"/>
<path d="M64.1647 32.0547C60.2882 32.0547 54.8151 37.3703 53.6833 42.0953C51.9495 41.1985 50.8536 40.3234 49.1554 40.3234C47.0974 40.3234 46.3618 41.1985 44.6285 42.0953C44.0626 37.3703 38.0227 32.0547 34.1462 32.0547C28.0681 32.0547 23.1235 37.3536 23.1235 43.8672C23.1235 50.3808 28.0681 55.6797 34.1462 55.6797C39.7687 55.6797 44.418 51.144 45.0841 45.309C46.0565 44.2528 47.5428 43.2766 49.1554 43.2766C50.7681 43.2766 52.2552 44.2533 53.2277 45.309C53.8938 51.1445 58.5431 55.6797 64.1656 55.6797C70.2437 55.6797 75.1882 50.3808 75.1882 43.8672C75.1874 37.3541 70.2428 32.0547 64.1647 32.0547ZM34.1462 53.3172C29.9146 53.3172 23.6895 48.5922 25.3872 43.8672C27.085 39.1422 30.4805 35.0078 33.3101 34.4172C35.4659 33.9672 41.7989 36.0759 42.3648 43.8672C42.6643 47.9897 40.1012 53.3172 34.1462 53.3172ZM64.1647 52.1359C59.9323 52.1359 55.9469 49.1828 55.9469 43.8672C55.9469 38.5515 58.7765 34.4172 64.1647 34.4172C71.4481 34.4172 73.1406 39.6003 72.9246 43.8672C72.5358 51.5453 68.3972 52.1359 64.1647 52.1359Z" fill="#FF9D00"/>
</svg>
