<svg width="487" height="267" viewBox="0 0 487 267" fill="none" xmlns="http://www.w3.org/2000/svg">
<path d="M454.276 83.545C341.042 83.7677 227.808 83.6786 114.615 83.6786C102.918 83.6786 91.5905 85.9946 80.7966 90.9382C69.1818 96.2826 59.0034 103.676 52.8061 116.013C47.2655 127.013 42.1764 138.281 37.0461 149.504C30.7668 163.222 31.2182 184.466 44.1874 196.981C44.2695 197.07 44.1874 197.382 44.1874 197.916C38.2364 197.916 32.2443 197.916 26.2932 197.916C20.0549 197.961 15.1299 200.767 12.4211 206.824C8.44011 215.776 4.45906 224.772 1.21677 234.036C-3.54407 247.619 6.55219 257.729 16.1559 257.685C89.7026 257.329 163.249 257.596 236.796 257.462C258.343 257.418 278.987 249.579 294.542 233.1C311.984 214.618 332.71 166.562 308.783 145.585C307.675 144.605 306.485 143.67 304.761 142.245C306.608 142.245 307.675 142.245 308.742 142.245C354.298 142.245 399.895 142.245 445.452 142.289C452.224 142.289 457.026 138.86 459.693 132.402C463.141 124.118 466.301 115.656 469.379 107.15C473.483 95.7037 465.89 83.5005 454.276 83.545Z" fill="#28285F"/>
<path d="M289.247 214.707L168.749 214.929H168.708H25.7597L15.2941 240.315H15.3351V240.36H234.416C236.016 240.36 237.576 240.315 239.135 240.226C239.628 240.182 240.079 240.182 240.572 240.137C241.639 240.048 242.665 240.004 243.65 239.87C244.142 239.826 244.676 239.781 245.168 239.692C246.153 239.558 247.138 239.425 248.082 239.291C248.534 239.202 248.985 239.157 249.396 239.068C250.668 238.846 251.858 238.623 253.09 238.356C253.172 238.356 253.295 238.311 253.377 238.311C254.649 238 255.921 237.688 257.112 237.331C257.481 237.242 257.85 237.109 258.22 236.975C259.082 236.708 259.902 236.441 260.723 236.129C261.134 235.995 261.544 235.817 261.913 235.684C262.693 235.372 263.432 235.06 264.212 234.748C264.581 234.615 264.909 234.437 265.279 234.303C266.223 233.902 267.126 233.457 268.029 232.967C268.152 232.922 268.275 232.833 268.439 232.789C269.465 232.254 270.409 231.72 271.394 231.141C271.681 230.963 271.969 230.785 272.215 230.606C272.872 230.206 273.528 229.76 274.185 229.315C274.513 229.092 274.801 228.869 275.129 228.647C275.744 228.201 276.319 227.756 276.894 227.311C277.181 227.088 277.468 226.865 277.756 226.643C278.453 226.108 279.151 225.529 279.808 224.95C279.931 224.817 280.095 224.727 280.218 224.594C280.916 223.97 281.613 223.302 282.311 222.634C282.352 222.59 282.434 222.501 282.516 222.456C283.05 221.922 283.583 221.387 284.117 220.808C284.404 220.496 284.692 220.229 284.979 219.917C285.636 219.205 286.292 218.492 286.908 217.735C287.031 217.602 287.154 217.468 287.277 217.334C287.277 217.334 287.277 217.334 287.277 217.29C288.016 216.444 288.714 215.553 289.411 214.662H289.37C289.206 214.751 289.206 214.751 289.247 214.707Z" fill="#FADB13"/>
<path d="M455.261 100.87V100.825H134.766H115.846C93.6836 100.825 73.6963 110.49 66.0626 124.296L65.6111 125.276H65.6522L64.3799 127.637L49.6459 157.165C48.8661 159.169 48.3326 161.44 48.0453 163.801V163.845C48.0453 163.89 48.0453 163.979 48.0453 164.023C47.9632 164.602 47.9222 165.181 47.8811 165.76C47.8811 165.805 47.8811 165.85 47.8811 165.894C47.8811 165.939 47.8811 166.028 47.8811 166.072C47.8811 166.161 47.8811 166.25 47.8811 166.384C47.8401 166.918 47.8401 167.408 47.8401 167.943C47.8401 168.076 47.8401 168.165 47.8401 168.299C47.8401 168.477 47.8811 168.655 47.8811 168.833C47.8811 169.234 47.9222 169.635 47.9632 170.036C47.9632 170.081 47.9632 170.125 47.9632 170.17C47.9632 170.259 47.9632 170.348 48.0043 170.437C48.0453 170.793 48.0863 171.105 48.1274 171.461C48.1684 171.684 48.1684 171.951 48.2095 172.174C48.2095 172.218 48.2095 172.263 48.2095 172.307C48.2095 172.352 48.2095 172.396 48.2095 172.441C48.3326 173.065 48.4557 173.688 48.6199 174.267C48.6609 174.356 48.6609 174.49 48.702 174.579C48.8661 175.113 49.0303 175.648 49.1945 176.182C49.1945 176.227 49.1945 176.271 49.2355 176.271C49.2765 176.36 49.3176 176.494 49.3586 176.583C49.3586 176.627 49.3997 176.672 49.3997 176.717C49.6049 177.206 49.7691 177.696 50.0153 178.142C50.0563 178.186 50.0563 178.231 50.0563 178.275C50.0974 178.32 50.0974 178.364 50.1384 178.453C50.1795 178.543 50.2615 178.632 50.3026 178.765C50.4668 179.077 50.6309 179.344 50.7951 179.656C50.8772 179.79 50.9182 179.923 51.0003 180.012C51.0413 180.057 51.0824 180.101 51.0824 180.19C51.2055 180.369 51.3286 180.502 51.4518 180.636C51.6159 180.858 51.7801 181.081 51.9443 181.304C52.0264 181.393 52.0674 181.482 52.1495 181.571C52.2316 181.66 52.2726 181.749 52.3547 181.838C52.3957 181.927 52.4778 181.972 52.5599 182.016C52.683 182.15 52.8061 182.239 52.9293 182.373C53.1755 182.595 53.3807 182.863 53.627 183.085C53.709 183.174 53.7911 183.219 53.8732 183.308C53.9963 183.397 54.1195 183.486 54.2426 183.575C54.3247 183.664 54.4478 183.753 54.5709 183.798C54.8582 184.021 55.1045 184.199 55.3918 184.421C55.4328 184.421 55.4738 184.466 55.4738 184.466C55.7201 184.6 55.9664 184.733 56.2536 184.867C56.3357 184.911 56.4178 184.956 56.4999 185C56.7051 185.09 56.9103 185.223 57.1565 185.357C57.2386 185.401 57.3207 185.446 57.4028 185.49C57.9774 185.758 58.634 185.98 59.2907 186.158C59.4138 186.203 59.537 186.247 59.6601 186.247C60.3168 186.426 61.0145 186.559 61.7532 186.648C61.8763 186.648 61.9995 186.693 62.1226 186.693C62.9024 186.782 63.7232 186.826 64.544 186.826H95.2843H181.226C181.595 186.826 181.964 186.826 182.334 186.871C182.457 186.871 182.539 186.916 182.662 186.916C182.908 186.96 183.154 186.96 183.36 187.005C183.483 187.049 183.606 187.049 183.729 187.094C183.934 187.138 184.098 187.183 184.304 187.227C184.427 187.272 184.55 187.316 184.673 187.361C184.837 187.405 185.001 187.494 185.166 187.539C185.289 187.584 185.412 187.673 185.535 187.717C185.699 187.806 185.822 187.851 185.986 187.94C186.109 187.984 186.192 188.073 186.315 188.163C186.438 188.252 186.561 188.341 186.684 188.43C186.766 188.519 186.889 188.608 186.971 188.697C187.094 188.786 187.218 188.875 187.3 189.009C187.382 189.098 187.464 189.187 187.546 189.276C187.628 189.365 187.751 189.499 187.833 189.588C187.915 189.677 187.997 189.81 188.079 189.9C188.162 190.033 188.244 190.122 188.326 190.256C188.408 190.345 188.449 190.478 188.531 190.612C188.613 190.746 188.695 190.879 188.736 191.013C188.777 191.147 188.859 191.236 188.9 191.369C188.941 191.503 189.023 191.636 189.064 191.77C189.106 191.904 189.147 192.037 189.188 192.171C189.229 192.305 189.27 192.438 189.311 192.616C189.311 192.661 189.311 192.661 189.352 192.705C189.393 192.794 189.393 192.928 189.434 193.017C189.475 193.151 189.516 193.329 189.516 193.462V193.507C189.516 193.596 189.557 193.685 189.557 193.774C189.557 193.819 189.557 193.863 189.557 193.908C189.557 193.997 189.598 194.131 189.598 194.22C189.639 194.531 189.639 194.888 189.639 195.199V195.244C189.639 196.58 189.434 198.005 189.064 199.43C189.023 199.52 189.023 199.609 188.982 199.742C187.792 203.84 184.96 208.071 180.774 210.966H180.856C180.815 210.966 180.815 211.01 180.774 211.01H220.872V210.966C223.745 210.966 268.111 211.01 292.489 211.01C312.682 177.206 305.664 163.445 298.235 157.966C295.034 155.606 291.176 154.448 287.277 154.448L150.116 153.424C146.504 153.646 143.878 153.29 141.99 152.577L141.949 152.533C141.826 152.488 141.661 152.399 141.538 152.355C141.292 152.266 141.087 152.132 140.882 151.998C140.717 151.909 140.553 151.776 140.389 151.642C140.225 151.509 140.061 151.375 139.897 151.241C139.773 151.108 139.609 150.974 139.486 150.841C139.363 150.707 139.24 150.529 139.117 150.351C139.035 150.217 138.912 150.039 138.829 149.861C138.747 149.683 138.665 149.504 138.583 149.326C138.501 149.148 138.46 148.97 138.419 148.792C138.214 148.079 138.173 147.278 138.214 146.431C138.214 146.387 138.214 146.298 138.255 146.253C138.255 146.164 138.255 146.075 138.296 145.986C138.296 145.808 138.337 145.63 138.378 145.407C138.378 145.362 138.378 145.318 138.378 145.318C138.419 145.14 138.46 144.962 138.501 144.783C138.542 144.65 138.542 144.516 138.583 144.383V144.338C138.583 144.249 138.624 144.16 138.665 144.115C138.747 143.759 138.829 143.447 138.953 143.091C138.994 142.957 139.035 142.824 139.076 142.69C139.117 142.646 139.117 142.557 139.158 142.468C139.199 142.289 139.281 142.111 139.322 141.978C139.445 141.666 139.527 141.399 139.65 141.087C139.732 140.909 139.814 140.731 139.855 140.552C139.897 140.419 139.979 140.285 140.02 140.152C140.061 140.063 140.102 139.973 140.143 139.884C140.43 139.216 140.758 138.504 141.128 137.791C141.497 137.079 141.867 136.321 142.277 135.609C142.318 135.52 142.4 135.386 142.441 135.297C142.811 134.585 143.221 133.916 143.631 133.204C143.672 133.115 143.713 133.07 143.754 132.981C143.795 132.892 143.878 132.803 143.919 132.714C144.042 132.491 144.206 132.269 144.329 132.046C144.411 131.912 144.493 131.779 144.575 131.645C144.657 131.511 144.781 131.333 144.863 131.2C144.904 131.155 144.904 131.111 144.945 131.111C144.945 131.066 144.986 131.066 144.986 131.022C145.068 130.888 145.15 130.799 145.232 130.665C145.314 130.576 145.355 130.487 145.437 130.398C145.478 130.353 145.519 130.309 145.519 130.264C145.56 130.22 145.601 130.175 145.601 130.131C145.642 130.086 145.683 130.042 145.683 129.997C145.683 129.997 145.683 129.953 145.724 129.953L145.766 129.908C145.766 129.864 145.807 129.864 145.807 129.819C145.807 129.775 145.848 129.775 145.848 129.73C145.848 129.685 145.889 129.685 145.889 129.641C145.889 129.596 145.93 129.596 145.93 129.552C145.93 129.507 145.971 129.507 145.971 129.463C145.971 129.463 145.971 129.463 146.012 129.418C146.012 129.418 146.012 129.418 146.053 129.374C146.053 129.374 146.053 129.374 146.094 129.329C146.094 129.329 146.094 129.329 146.135 129.285C146.135 129.285 146.135 129.285 146.176 129.24C146.176 129.24 146.176 129.24 146.217 129.196C146.217 129.196 146.217 129.196 146.258 129.151C146.299 129.106 146.258 129.151 146.299 129.106C146.299 129.106 146.299 129.106 146.34 129.062C146.34 129.062 146.34 129.062 146.381 129.017C146.381 129.017 146.381 129.017 146.422 128.973C146.422 128.973 146.422 128.973 146.463 128.928C146.463 128.928 146.463 128.928 146.504 128.884C146.504 128.884 146.504 128.884 146.545 128.839C146.545 128.839 146.545 128.839 146.586 128.795C146.627 128.75 146.668 128.706 146.668 128.661C146.709 128.617 146.709 128.572 146.751 128.572L146.792 128.527C147.079 128.171 147.366 127.859 147.694 127.503C147.653 127.503 147.653 127.548 147.612 127.548L147.694 127.503H147.653L147.694 127.459H91.8367H83.9157C83.9157 126.167 88.8407 125.143 90.0309 125.143H92.2061H154.507H445.903L455.261 100.87Z" fill="#FADB13"/>
<g filter="url(#filter0_d_53_303)">
<path d="M420.893 235.179H400.088C399.479 235.179 399.175 234.875 399.175 234.266V229.375C399.175 228.767 399.479 228.463 400.088 228.463H410.381V164.588H400.088C399.479 164.588 399.175 164.284 399.175 163.675V158.821C399.175 158.212 399.479 157.908 400.088 157.908H420.893C421.501 157.908 421.805 158.212 421.805 158.821V234.266C421.805 234.875 421.501 235.179 420.893 235.179Z" fill="#F49321"/>
<path d="M410.381 228.463V229.963H411.881V228.463H410.381ZM410.381 164.588H411.881V163.088H410.381V164.588ZM420.893 233.679H400.088V236.679H420.893V233.679ZM400.088 233.679C400.015 233.679 400.235 233.662 400.464 233.89C400.692 234.118 400.675 234.339 400.675 234.266H397.675C397.675 234.802 397.81 235.479 398.343 236.011C398.875 236.544 399.552 236.679 400.088 236.679V233.679ZM400.675 234.266V229.375H397.675V234.266H400.675ZM400.675 229.375C400.675 229.302 400.692 229.523 400.464 229.752C400.235 229.98 400.015 229.963 400.088 229.963V226.963C399.552 226.963 398.875 227.098 398.343 227.63C397.81 228.163 397.675 228.84 397.675 229.375H400.675ZM400.088 229.963H410.381V226.963H400.088V229.963ZM411.881 228.463V164.588H408.881V228.463H411.881ZM410.381 163.088H400.088V166.088H410.381V163.088ZM400.088 163.088C400.015 163.088 400.235 163.071 400.464 163.299C400.692 163.527 400.675 163.748 400.675 163.675H397.675C397.675 164.211 397.81 164.888 398.343 165.42C398.875 165.953 399.552 166.088 400.088 166.088V163.088ZM400.675 163.675V158.821H397.675V163.675H400.675ZM400.675 158.821C400.675 158.748 400.692 158.969 400.464 159.197C400.235 159.425 400.015 159.408 400.088 159.408V156.408C399.552 156.408 398.875 156.543 398.343 157.076C397.81 157.608 397.675 158.285 397.675 158.821H400.675ZM400.088 159.408H420.893V156.408H400.088V159.408ZM420.893 159.408C420.966 159.408 420.745 159.425 420.516 159.197C420.288 158.969 420.305 158.748 420.305 158.821H423.305C423.305 158.285 423.17 157.608 422.638 157.076C422.105 156.543 421.428 156.408 420.893 156.408V159.408ZM420.305 158.821V234.266H423.305V158.821H420.305ZM420.305 234.266C420.305 234.339 420.288 234.118 420.516 233.89C420.745 233.662 420.966 233.679 420.893 233.679V236.679C421.428 236.679 422.105 236.544 422.638 236.011C423.17 235.479 423.305 234.802 423.305 234.266H420.305Z" fill="#28285F"/>
<path d="M333.576 227.2V165.1L325.076 164.2V158.2H354.176V164.2L345.976 165.1V196.6L371.676 165.1L364.076 164.2L363.976 158.2H390.476V164.2L382.076 165.1L359.976 190.3C361.576 191.9 363.443 194.3 365.576 197.5C367.709 200.7 370.243 204.733 373.176 209.6C376.643 215.2 379.376 219.467 381.376 222.4C383.376 225.267 384.843 226.8 385.776 227L393.076 228.8V234H375.976C374.976 233.933 373.643 232.567 371.976 229.9C370.309 227.233 368.076 223.2 365.276 217.8C362.543 212.6 360.243 208.433 358.376 205.3C356.509 202.1 354.776 199.7 353.176 198.1L345.976 206.3V227.2L355.276 228.8V234H324.976V228.8L333.576 227.2Z" fill="#DD1D46"/>
<path d="M333.576 227.2L333.85 228.675L335.076 228.447V227.2H333.576ZM333.576 165.1H335.076V163.75L333.734 163.608L333.576 165.1ZM325.076 164.2H323.576V165.55L324.918 165.692L325.076 164.2ZM325.076 158.2V156.7H323.576V158.2H325.076ZM354.176 158.2H355.676V156.7H354.176V158.2ZM354.176 164.2L354.34 165.691L355.676 165.544V164.2H354.176ZM345.976 165.1L345.812 163.609L344.476 163.756V165.1H345.976ZM345.976 196.6H344.476V200.811L347.138 197.548L345.976 196.6ZM371.676 165.1L372.838 166.048L374.565 163.932L371.852 163.61L371.676 165.1ZM364.076 164.2L362.576 164.225L362.598 165.535L363.9 165.69L364.076 164.2ZM363.976 158.2V156.7H362.451L362.476 158.225L363.976 158.2ZM390.476 158.2H391.976V156.7H390.476V158.2ZM390.476 164.2L390.636 165.691L391.976 165.548V164.2H390.476ZM382.076 165.1L381.916 163.609L381.334 163.671L380.948 164.111L382.076 165.1ZM359.976 190.3L358.848 189.311L357.922 190.367L358.915 191.361L359.976 190.3ZM373.176 209.6L371.891 210.374L371.896 210.382L371.901 210.39L373.176 209.6ZM381.376 222.4L380.137 223.245L380.141 223.252L380.146 223.258L381.376 222.4ZM385.776 227L386.135 225.544L386.113 225.538L386.09 225.533L385.776 227ZM393.076 228.8H394.576V227.625L393.435 227.344L393.076 228.8ZM393.076 234V235.5H394.576V234H393.076ZM375.976 234L375.876 235.497L375.926 235.5H375.976V234ZM371.976 229.9L373.248 229.105L371.976 229.9ZM365.276 217.8L366.608 217.11L366.604 217.102L365.276 217.8ZM358.376 205.3L357.08 206.056L357.087 206.068L358.376 205.3ZM353.176 198.1L354.237 197.039L353.105 195.908L352.049 197.11L353.176 198.1ZM345.976 206.3L344.849 205.31L344.476 205.735V206.3H345.976ZM345.976 227.2H344.476V228.464L345.722 228.678L345.976 227.2ZM355.276 228.8H356.776V227.536L355.53 227.322L355.276 228.8ZM355.276 234V235.5H356.776V234H355.276ZM324.976 234H323.476V235.5H324.976V234ZM324.976 228.8L324.702 227.325L323.476 227.553V228.8H324.976ZM335.076 227.2V165.1H332.076V227.2H335.076ZM333.734 163.608L325.234 162.708L324.918 165.692L333.418 166.592L333.734 163.608ZM326.576 164.2V158.2H323.576V164.2H326.576ZM325.076 159.7H354.176V156.7H325.076V159.7ZM352.676 158.2V164.2H355.676V158.2H352.676ZM354.012 162.709L345.812 163.609L346.14 166.591L354.34 165.691L354.012 162.709ZM344.476 165.1V196.6H347.476V165.1H344.476ZM347.138 197.548L372.838 166.048L370.514 164.152L344.814 195.652L347.138 197.548ZM371.852 163.61L364.252 162.71L363.9 165.69L371.5 166.59L371.852 163.61ZM365.576 164.175L365.476 158.175L362.476 158.225L362.576 164.225L365.576 164.175ZM363.976 159.7H390.476V156.7H363.976V159.7ZM388.976 158.2V164.2H391.976V158.2H388.976ZM390.316 162.709L381.916 163.609L382.236 166.591L390.636 165.691L390.316 162.709ZM380.948 164.111L358.848 189.311L361.104 191.289L383.204 166.089L380.948 164.111ZM358.915 191.361C360.414 192.859 362.217 195.166 364.328 198.332L366.824 196.668C364.668 193.434 362.738 190.941 361.037 189.239L358.915 191.361ZM364.328 198.332C366.444 201.506 368.965 205.519 371.891 210.374L374.461 208.826C371.521 203.948 368.974 199.894 366.824 196.668L364.328 198.332ZM371.901 210.39C375.371 215.995 378.118 220.284 380.137 223.245L382.615 221.555C380.634 218.649 377.914 214.405 374.451 208.81L371.901 210.39ZM380.146 223.258C381.166 224.72 382.082 225.89 382.892 226.737C383.297 227.16 383.7 227.529 384.098 227.816C384.483 228.094 384.944 228.356 385.462 228.467L386.09 225.533C386.141 225.544 386.069 225.539 385.854 225.384C385.652 225.238 385.388 225.006 385.06 224.663C384.403 223.976 383.586 222.947 382.606 221.542L380.146 223.258ZM385.417 228.456L392.717 230.256L393.435 227.344L386.135 225.544L385.417 228.456ZM391.576 228.8V234H394.576V228.8H391.576ZM393.076 232.5H375.976V235.5H393.076V232.5ZM376.076 232.503C376.158 232.509 375.913 232.506 375.3 231.878C374.74 231.304 374.056 230.398 373.248 229.105L370.704 230.695C371.563 232.069 372.378 233.179 373.152 233.972C373.873 234.711 374.793 235.424 375.876 235.497L376.076 232.503ZM373.248 229.105C371.614 226.491 369.403 222.5 366.608 217.11L363.944 218.49C366.749 223.9 369.005 227.976 370.704 230.695L373.248 229.105ZM366.604 217.102C363.864 211.891 361.551 207.698 359.665 204.532L357.087 206.068C358.935 209.169 361.221 213.309 363.948 218.498L366.604 217.102ZM359.672 204.544C357.776 201.294 355.967 198.77 354.237 197.039L352.115 199.161C353.585 200.63 355.243 202.906 357.08 206.056L359.672 204.544ZM352.049 197.11L344.849 205.31L347.103 207.29L354.303 199.09L352.049 197.11ZM344.476 206.3V227.2H347.476V206.3H344.476ZM345.722 228.678L355.022 230.278L355.53 227.322L346.23 225.722L345.722 228.678ZM353.776 228.8V234H356.776V228.8H353.776ZM355.276 232.5H324.976V235.5H355.276V232.5ZM326.476 234V228.8H323.476V234H326.476ZM325.25 230.275L333.85 228.675L333.302 225.725L324.702 227.325L325.25 230.275Z" fill="#28285F"/>
<path d="M428.628 235.331C428.02 235.331 427.716 235.027 427.716 234.418V158.973C427.716 158.364 428.02 158.06 428.628 158.06H449.433C450.041 158.06 450.346 158.364 450.346 158.973V163.827C450.346 164.436 450.041 164.74 449.433 164.74H439.14V228.615H449.433C450.041 228.615 450.346 228.919 450.346 229.527V234.418C450.346 235.027 450.041 235.331 449.433 235.331H428.628ZM464.549 192.991V172.77L455.314 164.156C455.144 163.961 455.022 163.779 454.949 163.608C454.901 163.414 454.876 163.207 454.876 162.988V158.973C454.876 158.364 455.18 158.06 455.789 158.06H462.979C463.612 158.06 464.099 158.218 464.439 158.535L475.389 169.485C475.657 169.752 475.815 169.971 475.864 170.142C475.937 170.288 475.973 170.555 475.973 170.945V180.435C475.973 180.897 475.815 181.286 475.499 181.603L464.549 192.991ZM462.979 235.331H455.789C455.18 235.331 454.876 235.027 454.876 234.418V230.403C454.876 230.184 454.901 229.977 454.949 229.783C455.022 229.588 455.144 229.406 455.314 229.235L464.549 220.585V200.4L475.499 211.788C475.815 212.105 475.973 212.482 475.973 212.92V222.41C475.973 222.799 475.937 223.067 475.864 223.213C475.815 223.383 475.657 223.602 475.389 223.87L464.439 234.82C464.099 235.16 463.612 235.331 462.979 235.331ZM479.806 202.298H470.206C469.671 202.298 469.403 202.031 469.403 201.495V191.896C469.403 191.36 469.671 191.093 470.206 191.093H479.806C480.341 191.093 480.609 191.36 480.609 191.896V201.495C480.609 202.031 480.341 202.298 479.806 202.298Z" fill="#2BA8E0"/>
<path d="M439.14 164.74V163.24H437.64V164.74H439.14ZM439.14 228.615H437.64V230.115H439.14V228.615ZM428.628 233.831C428.555 233.831 428.776 233.814 429.004 234.042C429.233 234.27 429.216 234.491 429.216 234.418H426.216C426.216 234.954 426.35 235.631 426.883 236.163C427.416 236.696 428.093 236.831 428.628 236.831V233.831ZM429.216 234.418V158.973H426.216V234.418H429.216ZM429.216 158.973C429.216 158.9 429.233 159.121 429.004 159.349C428.776 159.577 428.555 159.56 428.628 159.56V156.56C428.093 156.56 427.416 156.695 426.883 157.228C426.35 157.76 426.216 158.437 426.216 158.973H429.216ZM428.628 159.56H449.433V156.56H428.628V159.56ZM449.433 159.56C449.506 159.56 449.285 159.577 449.057 159.349C448.828 159.121 448.846 158.9 448.846 158.973H451.846C451.846 158.437 451.711 157.76 451.178 157.228C450.646 156.695 449.968 156.56 449.433 156.56V159.56ZM448.846 158.973V163.827H451.846V158.973H448.846ZM448.846 163.827C448.846 163.9 448.828 163.679 449.057 163.451C449.285 163.223 449.506 163.24 449.433 163.24V166.24C449.968 166.24 450.646 166.105 451.178 165.572C451.711 165.04 451.846 164.363 451.846 163.827H448.846ZM449.433 163.24H439.14V166.24H449.433V163.24ZM437.64 164.74V228.615H440.64V164.74H437.64ZM439.14 230.115H449.433V227.115H439.14V230.115ZM449.433 230.115C449.506 230.115 449.285 230.132 449.057 229.904C448.828 229.675 448.846 229.454 448.846 229.527H451.846C451.846 228.992 451.711 228.315 451.178 227.782C450.646 227.25 449.968 227.115 449.433 227.115V230.115ZM448.846 229.527V234.418H451.846V229.527H448.846ZM448.846 234.418C448.846 234.491 448.828 234.27 449.057 234.042C449.285 233.814 449.506 233.831 449.433 233.831V236.831C449.968 236.831 450.646 236.696 451.178 236.163C451.711 235.631 451.846 234.954 451.846 234.418H448.846ZM449.433 233.831H428.628V236.831H449.433V233.831ZM464.549 192.991H463.049V196.715L465.63 194.03L464.549 192.991ZM464.549 172.77H466.049V172.118L465.572 171.673L464.549 172.77ZM455.314 164.156L454.185 165.143L454.235 165.201L454.291 165.253L455.314 164.156ZM454.949 163.608L453.494 163.972L453.523 164.089L453.57 164.199L454.949 163.608ZM464.439 158.535L465.5 157.474L465.48 157.454L465.46 157.436L464.439 158.535ZM475.389 169.485L476.45 168.424L476.45 168.424L475.389 169.485ZM475.864 170.142L474.421 170.554L474.46 170.688L474.522 170.813L475.864 170.142ZM475.499 181.603L474.438 180.542L474.428 180.552L474.417 180.563L475.499 181.603ZM454.949 229.783L453.545 229.256L453.515 229.336L453.494 229.419L454.949 229.783ZM455.314 229.235L454.289 228.141L454.271 228.157L454.254 228.175L455.314 229.235ZM464.549 220.585L465.574 221.679L466.049 221.235V220.585H464.549ZM464.549 200.4L465.63 199.361L463.049 196.676V200.4H464.549ZM475.499 211.788L474.417 212.828L474.428 212.838L474.438 212.849L475.499 211.788ZM475.864 223.213L474.522 222.542L474.46 222.667L474.421 222.801L475.864 223.213ZM475.389 223.87L476.45 224.93L475.389 223.87ZM464.439 234.82L465.5 235.88L464.439 234.82ZM466.049 192.991V172.77H463.049V192.991H466.049ZM465.572 171.673L456.337 163.059L454.291 165.253L463.526 173.867L465.572 171.673ZM456.443 163.168C456.394 163.111 456.362 163.069 456.343 163.041C456.324 163.012 456.322 163.005 456.328 163.017L453.57 164.199C453.725 164.559 453.949 164.874 454.185 165.143L456.443 163.168ZM456.404 163.244C456.388 163.179 456.376 163.095 456.376 162.988H453.376C453.376 163.318 453.413 163.648 453.494 163.972L456.404 163.244ZM456.376 162.988V158.973H453.376V162.988H456.376ZM456.376 158.973C456.376 158.9 456.393 159.121 456.165 159.349C455.937 159.577 455.716 159.56 455.789 159.56V156.56C455.253 156.56 454.576 156.695 454.044 157.228C453.511 157.76 453.376 158.437 453.376 158.973H456.376ZM455.789 159.56H462.979V156.56H455.789V159.56ZM462.979 159.56C463.174 159.56 463.292 159.585 463.355 159.605C463.386 159.615 463.403 159.624 463.41 159.628C463.414 159.631 463.416 159.632 463.417 159.633C463.418 159.634 463.418 159.634 463.418 159.634L465.46 157.436C464.755 156.781 463.852 156.56 462.979 156.56V159.56ZM463.379 159.595L474.329 170.545L476.45 168.424L465.5 157.474L463.379 159.595ZM474.329 170.545C474.376 170.593 474.413 170.632 474.441 170.664C474.469 170.696 474.485 170.718 474.493 170.728C474.5 170.739 474.495 170.732 474.482 170.709C474.47 170.686 474.444 170.633 474.421 170.554L477.306 169.73C477.144 169.162 476.736 168.711 476.45 168.424L474.329 170.545ZM474.522 170.813C474.483 170.734 474.466 170.677 474.462 170.658C474.456 170.637 474.457 170.634 474.46 170.655C474.462 170.674 474.466 170.708 474.469 170.759C474.471 170.809 474.473 170.87 474.473 170.945H477.473C477.473 170.56 477.453 169.966 477.205 169.471L474.522 170.813ZM474.473 170.945V180.435H477.473V170.945H474.473ZM474.473 180.435C474.473 180.465 474.471 180.484 474.469 180.494C474.467 180.504 474.465 180.508 474.465 180.509C474.465 180.51 474.464 180.511 474.462 180.515C474.459 180.519 474.452 180.528 474.438 180.542L476.559 182.663C477.167 182.055 477.473 181.28 477.473 180.435H474.473ZM474.417 180.563L463.467 191.951L465.63 194.03L476.58 182.642L474.417 180.563ZM462.979 233.831H455.789V236.831H462.979V233.831ZM455.789 233.831C455.716 233.831 455.937 233.814 456.165 234.042C456.393 234.27 456.376 234.491 456.376 234.418H453.376C453.376 234.954 453.511 235.631 454.044 236.163C454.576 236.696 455.253 236.831 455.789 236.831V233.831ZM456.376 234.418V230.403H453.376V234.418H456.376ZM456.376 230.403C456.376 230.296 456.388 230.212 456.404 230.147L453.494 229.419C453.413 229.743 453.376 230.073 453.376 230.403H456.376ZM456.354 230.309C456.348 230.325 456.343 230.333 456.343 230.332C456.344 230.33 456.353 230.318 456.375 230.296L454.254 228.175C453.956 228.472 453.704 228.832 453.545 229.256L456.354 230.309ZM456.34 230.33L465.574 221.679L463.523 219.49L454.289 228.141L456.34 230.33ZM466.049 220.585V200.4H463.049V220.585H466.049ZM463.467 201.44L474.417 212.828L476.58 210.749L465.63 199.361L463.467 201.44ZM474.438 212.849C474.456 212.867 474.465 212.879 474.468 212.884C474.472 212.889 474.472 212.89 474.471 212.888C474.47 212.886 474.47 212.886 474.471 212.888C474.472 212.891 474.473 212.901 474.473 212.92H477.473C477.473 212.074 477.15 211.318 476.559 210.728L474.438 212.849ZM474.473 212.92V222.41H477.473V212.92H474.473ZM474.473 222.41C474.473 222.484 474.471 222.546 474.469 222.596C474.466 222.646 474.462 222.68 474.46 222.7C474.457 222.721 474.456 222.718 474.462 222.697C474.466 222.678 474.483 222.62 474.522 222.542L477.205 223.884C477.453 223.389 477.473 222.794 477.473 222.41H474.473ZM474.421 222.801C474.444 222.721 474.47 222.669 474.482 222.646C474.495 222.622 474.5 222.615 474.493 222.626C474.485 222.637 474.469 222.658 474.441 222.69C474.413 222.722 474.376 222.762 474.329 222.809L476.45 224.93C476.736 224.644 477.144 224.192 477.306 223.625L474.421 222.801ZM474.329 222.809L463.379 233.759L465.5 235.88L476.45 224.93L474.329 222.809ZM463.379 233.759C463.376 233.761 463.374 233.764 463.368 233.767C463.362 233.771 463.349 233.778 463.323 233.787C463.271 233.806 463.164 233.831 462.979 233.831V236.831C463.88 236.831 464.798 236.582 465.5 235.88L463.379 233.759ZM479.806 200.798H470.206V203.798H479.806V200.798ZM470.206 200.798C470.17 200.798 470.418 200.79 470.665 201.037C470.911 201.284 470.903 201.532 470.903 201.495H467.903C467.903 201.994 468.029 202.644 468.543 203.158C469.058 203.672 469.707 203.798 470.206 203.798V200.798ZM470.903 201.495V191.896H467.903V201.495H470.903ZM470.903 191.896C470.903 191.859 470.911 192.107 470.665 192.354C470.418 192.601 470.17 192.593 470.206 192.593V189.593C469.707 189.593 469.058 189.718 468.543 190.233C468.029 190.747 467.903 191.397 467.903 191.896H470.903ZM470.206 192.593H479.806V189.593H470.206V192.593ZM479.806 192.593C479.842 192.593 479.594 192.601 479.347 192.354C479.101 192.107 479.109 191.859 479.109 191.896H482.109C482.109 191.397 481.983 190.747 481.469 190.233C480.954 189.718 480.305 189.593 479.806 189.593V192.593ZM479.109 191.896V201.495H482.109V191.896H479.109ZM479.109 201.495C479.109 201.532 479.101 201.284 479.347 201.037C479.594 200.79 479.842 200.798 479.806 200.798V203.798C480.305 203.798 480.954 203.672 481.469 203.158C481.983 202.644 482.109 201.994 482.109 201.495H479.109Z" fill="#28285F"/>
</g>
<defs>
<filter id="filter0_d_53_303" x="319.476" y="156.408" width="166.633" height="88.4225" filterUnits="userSpaceOnUse" color-interpolation-filters="sRGB">
<feFlood flood-opacity="0" result="BackgroundImageFix"/>
<feColorMatrix in="SourceAlpha" type="matrix" values="0 0 0 0 0 0 0 0 0 0 0 0 0 0 0 0 0 0 127 0" result="hardAlpha"/>
<feOffset dy="4"/>
<feGaussianBlur stdDeviation="2"/>
<feComposite in2="hardAlpha" operator="out"/>
<feColorMatrix type="matrix" values="0 0 0 0 0 0 0 0 0 0 0 0 0 0 0 0 0 0 0.4 0"/>
<feBlend mode="normal" in2="BackgroundImageFix" result="effect1_dropShadow_53_303"/>
<feBlend mode="normal" in="SourceGraphic" in2="effect1_dropShadow_53_303" result="shape"/>
</filter>
</defs>
</svg>
