<svg width="99" height="99" viewBox="0 0 99 99" fill="none" xmlns="http://www.w3.org/2000/svg">
<path d="M43.0651 14.8627C46.3126 11.2897 51.9227 11.2897 55.1702 14.8627L58.1807 18.1752C59.8216 19.9809 62.1805 20.96 64.6151 20.846L69.0815 20.6368C73.8987 20.4112 77.8662 24.3866 77.6407 29.2139L77.4323 33.6893C77.3185 36.129 78.2956 38.4926 80.0974 40.1371L83.403 43.1538C86.9689 46.4079 86.9689 52.0295 83.403 55.2837L80.0974 58.3004C78.2956 59.9447 77.3185 62.3085 77.4323 64.7481L77.6407 69.2237C77.8662 74.0508 73.8987 78.0265 69.0815 77.8005L64.6151 77.5917C62.1805 77.4777 59.8216 78.4567 58.1807 80.2622L55.1702 83.5747C51.9227 87.1479 46.3126 87.1479 43.0651 83.5747L40.0547 80.2622C38.4135 78.4567 36.0548 77.4777 33.62 77.5917L29.1539 77.8005C24.3365 78.0265 20.3693 74.0508 20.5944 69.2237L20.8031 64.7481C20.9169 62.3085 19.9399 59.9447 18.1378 58.3004L14.8322 55.2837C11.2665 52.0295 11.2665 46.4079 14.8322 43.1538L18.1378 40.1371C19.9399 38.4926 20.9169 36.129 20.8031 33.6892L20.5944 29.2139C20.3693 24.3866 24.3365 20.4112 29.1539 20.6368L33.62 20.846C36.0548 20.96 38.4135 19.9809 40.0547 18.1752L43.0651 14.8627Z" stroke="#FF9D00" stroke-width="4"/>
<path d="M49.1177 61.5234C55.8994 61.5234 61.3971 56.0144 61.3971 49.2188C61.3971 42.4231 55.8994 36.9141 49.1177 36.9141C42.3359 36.9141 36.8383 42.4231 36.8383 49.2188C36.8383 56.0144 42.3359 61.5234 49.1177 61.5234Z" stroke="#FF9D00" stroke-width="5"/>
</svg>
