<svg width="79" height="79" viewBox="0 0 79 79" fill="none" xmlns="http://www.w3.org/2000/svg">
<path d="M56.8445 7.45771L59.2734 5.02409C63.2973 0.991971 69.8212 0.991971 73.8451 5.02409C77.8686 9.05624 77.8686 15.5936 73.8451 19.6257L71.4162 22.0593M56.8445 7.45771C56.8445 7.45771 57.1481 12.6291 61.702 17.1921C66.2555 21.7551 71.4162 22.0593 71.4162 22.0593M56.8445 7.45771L34.5174 29.831C33.0052 31.3464 32.2491 32.1039 31.5986 32.9396C30.8315 33.9249 30.1739 34.9913 29.6373 36.1195C29.1824 37.076 28.8442 38.0925 28.1679 40.1258L26.0026 46.635M71.4162 22.0593L49.0891 44.4325C47.5769 45.9479 46.8207 46.7055 45.9868 47.3574C45.0035 48.126 43.9393 48.785 42.8133 49.3229C41.8588 49.7786 40.8445 50.1173 38.8153 50.7951L32.3195 52.9649M26.0026 46.635L24.6015 50.8468C24.2687 51.8476 24.5286 52.9503 25.2728 53.6964C26.017 54.442 27.1178 54.7023 28.1163 54.3689L32.3195 52.9649M26.0026 46.635L32.3195 52.9649" stroke="#FF9D00" stroke-width="3.584"/>
<path d="M76.8627 39.5084C76.8627 60.2236 60.104 77.0168 39.4314 77.0168C18.7586 77.0168 2 60.2236 2 39.5084C2 18.7931 18.7586 2 39.4314 2" stroke="#FF9D00" stroke-width="3.584" stroke-linecap="round"/>
</svg>
