<svg width="85" height="85" viewBox="0 0 85 85" fill="none" xmlns="http://www.w3.org/2000/svg">
<g clip-path="url(#clip0_47_88)">
<path d="M72.3118 46.6694C74.5346 46.6694 76.5972 47.6784 77.9709 49.4378C78.7105 50.385 79.831 50.9283 81.0568 50.9283C83.231 50.9283 84.9999 49.1594 84.9999 46.9853V25.4634C84.9999 22.3812 82.4922 19.8735 79.41 19.8735H60.7276C60.0212 19.8735 59.4463 19.2988 59.4463 18.5821C59.4463 18.1943 59.6284 17.8284 59.9462 17.5784C62.7576 15.364 64.1215 11.9159 63.5947 8.35438C62.9592 4.0594 59.362 0.57457 55.0411 0.0678913C52.2281 -0.261815 49.411 0.619726 47.3124 2.48657C45.2121 4.35507 44.0075 7.03771 44.0075 9.84702C44.0075 12.8952 45.3898 15.7226 47.7998 17.6041C48.0965 17.8357 48.2665 18.1916 48.2665 18.592C48.2665 19.2984 47.6917 19.8733 46.9852 19.8733H25.4633C22.3811 19.8733 19.8734 22.381 19.8734 25.4632V46.9851C19.8734 47.6915 19.2986 48.2664 18.582 48.2664C18.1941 48.2664 17.8283 48.0843 17.5782 47.7666C15.3639 44.9553 11.9161 43.5915 8.35426 44.1181C4.05927 44.7536 0.574448 48.3508 0.0677692 52.6715C-0.261937 55.4846 0.619604 58.3016 2.48645 60.4002C4.35495 62.5004 7.03759 63.705 9.8469 63.705C12.8951 63.705 15.7225 62.3228 17.604 59.9127C17.8356 59.6161 18.1915 59.4461 18.5919 59.4461C19.2983 59.4461 19.8732 60.0208 19.8732 60.7274V79.4099C19.8732 82.4922 22.3809 84.9998 25.4631 84.9998H46.985C49.1592 84.9998 50.9281 83.2309 50.9281 81.0467C50.9281 79.8379 50.376 78.71 49.4133 77.9518C47.3609 76.3353 46.3655 73.8144 46.7511 71.2084C47.2136 68.082 49.8337 65.5452 52.9812 65.1761C55.0705 64.9306 57.0769 65.5574 58.6307 66.9398C60.1636 68.3037 61.043 70.2616 61.043 72.3116C61.043 74.5344 60.034 76.597 58.2746 77.9707C57.3273 78.7103 56.7841 79.8308 56.7841 81.0566C56.7841 83.2308 58.553 84.9996 60.7271 84.9996H79.4096C82.4922 84.9998 84.9999 82.4922 84.9999 79.4099V60.7274C84.9999 58.5532 83.231 56.7844 81.0467 56.7844C79.838 56.7844 78.71 57.3364 77.9519 58.2991C76.3354 60.3515 73.8143 61.3476 71.2085 60.9613C68.0821 60.4988 65.5452 57.8787 65.1761 54.7312C64.9313 52.6421 65.5575 50.6356 66.9399 49.0817C68.3039 47.5486 70.2619 46.6694 72.3118 46.6694ZM64.9514 47.3124C63.0844 49.411 62.2028 52.2281 62.5327 55.041C63.0394 59.3619 66.5244 62.9591 70.8192 63.5946C74.3805 64.1209 77.8288 62.7576 80.0432 59.9461C80.2933 59.6285 80.6591 59.4464 81.057 59.4464C81.7634 59.4464 82.3383 60.0212 82.3383 60.7277V79.4102C82.3383 81.0247 81.0248 82.3383 79.4103 82.3383H60.7276C60.0212 82.3383 59.4463 81.7635 59.4463 81.0455C59.4463 80.6567 59.6163 80.3008 59.913 80.0692C62.323 78.1875 63.7052 75.3601 63.7052 72.3121C63.7052 69.5028 62.5006 66.82 60.4004 64.9516C58.5912 63.3418 56.2483 62.4646 53.8338 62.4646C53.4477 62.4646 53.0595 62.487 52.6717 62.5323C48.3508 63.039 44.7536 66.524 44.1183 70.8188C43.5913 74.3803 44.9553 77.8285 47.767 80.0428C48.0845 80.2929 48.2667 80.6587 48.2667 81.0566C48.2667 81.763 47.6919 82.3379 46.9854 82.3379H25.4635C23.849 82.3379 22.5354 81.0244 22.5354 79.4099V60.7272C22.5354 58.5531 20.7666 56.7842 18.5808 56.7842C17.3664 56.7842 16.246 57.3274 15.5064 58.2747C14.1328 60.0341 12.0702 61.0431 9.84723 61.0431C7.79728 61.0431 5.83913 60.1639 4.47548 58.6308C3.09307 57.077 2.46686 55.0704 2.71173 52.9813C3.08061 49.8338 5.61749 47.2136 8.74406 46.7512C11.35 46.3657 13.8708 47.3612 15.4874 49.4134C16.2455 50.3762 17.3735 50.9282 18.5924 50.9282C20.7666 50.9282 22.5354 49.1593 22.5354 46.9851V25.4632C22.5354 23.8487 23.849 22.5352 25.4635 22.5352H46.9854C49.1595 22.5352 50.9284 20.7663 50.9284 18.5806C50.9284 17.3662 50.385 16.2457 49.4379 15.5062C47.6785 14.1325 46.6694 12.07 46.6694 9.84702C46.6694 7.79706 47.5486 5.83908 49.0818 4.47527C50.6357 3.09286 52.6423 2.46698 54.7313 2.71152C57.8788 3.0804 60.499 5.61728 60.9613 8.74385C61.3468 11.3496 60.3516 13.8706 58.2991 15.4872C57.3364 16.2453 56.7844 17.3735 56.7844 18.5922C56.7844 20.7663 58.5533 22.5352 60.7274 22.5352H79.4101C81.0246 22.5352 82.3381 23.8487 82.3381 25.4632V46.9851C82.3381 47.6915 81.7634 48.2664 81.0454 48.2664C80.6566 48.2664 80.3006 48.0964 80.069 47.7998C78.1874 45.3897 75.36 44.0075 72.312 44.0075C69.5025 44.0075 66.8197 45.2121 64.9514 47.3124Z" fill="#FF9D00" stroke="#FF9D00" stroke-width="1.28"/>
</g>
<defs>
<clipPath id="clip0_47_88">
<rect width="85" height="85" fill="white"/>
</clipPath>
</defs>
</svg>
